<svg xmlns="http://www.w3.org/2000/svg" viewBox="0 0 24 24" width="24" height="24">
    <path fill="#4285F4" d="M12.23 9.4c-1-.9-2.3-1.4-3.7-1.4-2.8 0-5.2 1.9-6 4.4l-1.3-1c.8-3.4 3.9-5.9 7.3-5.9 1.9 0 3.7.7 5 2l-1.3 1.9z"/>
    <path fill="#34A853" d="M8.5 21.4c-3.4 0-6.5-2.5-7.3-5.9l1.3-1c.8 2.5 3.2 4.4 6 4.4 1.4 0 2.7-.5 3.7-1.4l1.3 1.9c-1.3 1.3-3.1 2-5 2z"/>
    <path fill="#FBBC05" d="M19.1 11.5c.2.6.3 1.3.3 2 0 3.4-2.5 6.5-5.9 7.3l-1-1.3c2.5-.8 4.4-3.2 4.4-6 0-1.4-.5-2.7-1.4-3.7l1.9-1.3c1.3 1.3 2 3.1 2 3z"/>
    <path fill="#EA4335" d="M12.5 2.6c3.4 0 6.5 2.5 7.3 5.9l-1.3 1c-.8-2.5-3.2-4.4-6-4.4-1.4 0-2.7.5-3.7 1.4l-1.3-1.9c1.3-1.3 3.1-2 5-2z"/>
</svg>
